<svg xmlns="http://www.w3.org/2000/svg" xmlns:xlink="http://www.w3.org/1999/xlink" width="215.555" height="75.597" viewBox="0 0 215.555 75.597"><defs><clipPath id="a"><path d="M0-16.4H215.555V-92H0Z" transform="translate(0 92.001)" fill="none"/></clipPath><clipPath id="b"><rect width="21.09" height="12.873" fill="none"/></clipPath></defs><g transform="translate(0 92.001)"><g transform="translate(0 -92.001)" clip-path="url(#a)"><g transform="translate(17.804 -5.751)" opacity="0.8"><g clip-path="url(#b)"><g transform="translate(7.395 5.752)"><path d="M-1.367,0V6.3h-6.3" transform="translate(7.667)" fill="#fff"/></g></g></g></g><g transform="translate(18.899 -85.701)"><path d="M-1.367,0V6.3h-6.3" transform="translate(7.667)" fill="#fff"/></g><g transform="translate(0 -92.001)" clip-path="url(#a)"><g transform="translate(24.103 0.548)" opacity="0.8"><g clip-path="url(#b)"><path d="M44.633-78.034h-6.3v-6.3h6.3Z" transform="translate(-30.938 90.086)" fill="#fff"/></g></g></g><g transform="translate(37.798 -85.701)"><path d="M0-1.367H6.3v-6.3Z" transform="translate(0 7.667)" fill="#fff"/></g><g transform="translate(0 -92.001)" clip-path="url(#a)"><g transform="translate(-1.096 6.848)" opacity="0.5"><g clip-path="url(#b)"><path d="M13.966-70.367h-6.3v-6.3h6.3Z" transform="translate(-0.271 82.419)" fill="#fff"/></g></g><g transform="translate(11.504 6.848)" opacity="0.5"><g clip-path="url(#b)"><g transform="translate(7.395 5.752)"><path d="M0,0H6.3V6.3" fill="#fff"/></g></g></g></g><g transform="translate(12.599 -79.401)"><path d="M0,0H6.3V6.3" fill="#fff"/></g><path d="M36.967-70.367h-6.3v-6.3h6.3Z" transform="translate(-5.468 -2.734)" fill="#fff"/><g transform="translate(31.498 -79.401)"><path d="M-1.367,0V6.3h-6.3" transform="translate(7.667)" fill="#fff"/></g><g transform="translate(0 -73.101)"><path d="M0-1.367H6.3v-6.3Z" transform="translate(0 7.666)" fill="#fff"/></g><g transform="translate(12.599 -73.102)"><path d="M0-1.367v-6.3H6.3Z" transform="translate(0 7.667)" fill="#fff"/></g><g transform="translate(0 -92.001)" clip-path="url(#a)"><g transform="translate(11.504 13.148)" opacity="0.8"><g clip-path="url(#b)"><path d="M29.3-62.7H23V-69h6.3Z" transform="translate(-15.605 74.752)" fill="#fff"/></g></g></g><g transform="translate(25.199 -73.102)"><path d="M-1.367-1.367h-6.3v-6.3" transform="translate(7.667 7.667)" fill="#fff"/></g><g transform="translate(31.498 -73.102)"><path d="M-1.367,0V6.3h-6.3" transform="translate(7.667)" fill="#fff"/></g><g transform="translate(0 -92.001)" clip-path="url(#a)"><g transform="translate(30.403 13.148)" opacity="0.5"><g clip-path="url(#b)"><path d="M52.3-62.7H46V-69h6.3Z" transform="translate(-38.605 74.752)" fill="#fff"/></g></g><g transform="translate(36.703 6.848)" opacity="0.8"><g clip-path="url(#b)"><path d="M59.967-70.367h-6.3v-6.3h6.3Z" transform="translate(-46.272 82.419)" fill="#fff"/></g></g></g><path d="M52.3-55.034H46v-6.3h6.3Z" transform="translate(-8.202 -5.468)" fill="#fff"/><g transform="translate(50.398 -73.102)"><path d="M0,0V6.3H6.3" fill="#fff"/></g><g transform="translate(0 -92.001)" clip-path="url(#a)"><g transform="translate(-1.096 19.447)" opacity="0.8"><g clip-path="url(#b)"><g transform="translate(7.395 5.752)"><path d="M0,0H6.3V6.3" fill="#fff"/></g></g></g><g transform="translate(-1.096 25.747)" opacity="0.5"><g clip-path="url(#b)"><path d="M13.966-47.367h-6.3v-6.3h6.3Z" transform="translate(-0.271 59.419)" fill="#fff"/></g></g></g><g transform="translate(12.599 -66.802)"><path d="M-1.367,0V6.3h-6.3" transform="translate(7.667)" fill="#fff"/></g><path d="M29.3-55.034H23v-6.3h6.3Z" transform="translate(-4.101 -5.468)" fill="#fff"/><g transform="translate(0 -92.001)" clip-path="url(#a)"><g transform="translate(11.504 25.747)" opacity="0.8"><g clip-path="url(#b)"><path d="M29.3-47.367H23v-6.3h6.3Z" transform="translate(-15.605 59.419)" fill="#fff"/></g></g></g><g transform="translate(25.199 -66.802)"><path d="M-1.367,0V6.3h-6.3" transform="translate(7.667)" fill="#fff"/></g><g transform="translate(31.498 -66.802)"><path d="M-1.367-1.367h-6.3v-6.3" transform="translate(7.667 7.667)" fill="#fff"/></g><g transform="translate(0 -92.001)" clip-path="url(#a)"><g transform="translate(36.703 19.447)" opacity="0.8"><g clip-path="url(#b)"><path d="M59.967-55.034h-6.3v-6.3h6.3Z" transform="translate(-46.272 67.086)" fill="#fff"/></g></g></g><g transform="translate(12.599 -60.502)"><path d="M-1.367-1.367h-6.3v-6.3" transform="translate(7.667 7.667)" fill="#fff"/></g><g transform="translate(25.199 -60.502)"><path d="M-1.367,0V6.3h-6.3" transform="translate(7.667)" fill="#fff"/></g><g transform="translate(0 -92.001)" clip-path="url(#a)"><g transform="translate(24.103 25.747)" opacity="0.8"><g clip-path="url(#b)"><path d="M44.633-47.367h-6.3v-6.3h6.3Z" transform="translate(-30.938 59.419)" fill="#fff"/></g></g></g><g transform="translate(37.798 -60.502)"><path d="M-1.367,0V6.3h-6.3" transform="translate(7.667)" fill="#fff"/></g><g transform="translate(44.098 -60.502)"><path d="M-1.367,0V6.3h-6.3" transform="translate(7.667)" fill="#fff"/></g><g transform="translate(0 -92.001)" clip-path="url(#a)"><g transform="translate(43.002 25.747)" opacity="0.8"><g clip-path="url(#b)"><g transform="translate(7.395 5.752)"><path d="M0-1.367v-6.3H6.3Z" transform="translate(0 7.667)" fill="#fff"/></g></g></g></g><g transform="translate(6.3 -54.202)"><path d="M0,0H6.3V6.3" fill="#fff"/></g><g transform="translate(18.899 -54.203)"><path d="M0-1.367v-6.3H6.3" transform="translate(0 7.667)" fill="#fff"/></g><g transform="translate(0 -92.001)" clip-path="url(#a)"><g transform="translate(17.804 32.047)" opacity="0.5"><g clip-path="url(#b)"><path d="M36.967-39.7h-6.3V-46h6.3Z" transform="translate(-23.272 51.752)" fill="#fff"/></g></g></g><g transform="translate(31.498 -54.203)"><path d="M-1.367-1.367h-6.3v-6.3" transform="translate(7.667 7.667)" fill="#fff"/></g><g transform="translate(0 -92.001)" clip-path="url(#a)"><g transform="translate(30.403 32.047)" opacity="0.5"><g clip-path="url(#b)"><path d="M52.3-39.7H46V-46h6.3Z" transform="translate(-38.605 51.752)" fill="#fff"/></g></g></g><g transform="translate(44.098 -54.202)"><path d="M-1.367,0V6.3h-6.3" transform="translate(7.667)" fill="#fff"/></g><g transform="translate(0 -92.001)" clip-path="url(#a)"><g transform="translate(5.204 38.346)" opacity="0.5"><g clip-path="url(#b)"><path d="M21.633-32.034h-6.3v-6.3h6.3Z" transform="translate(-7.938 44.085)" fill="#fff"/></g></g></g><path d="M29.3-32.034H23v-6.3h6.3Z" transform="translate(-4.101 -9.569)" fill="#fff"/><g transform="translate(0 -92.001)" clip-path="url(#a)"><g transform="translate(24.103 38.346)" opacity="0.5"><g clip-path="url(#b)"><path d="M44.633-32.034h-6.3v-6.3h6.3Z" transform="translate(-30.938 44.085)" fill="#fff"/></g></g></g><g transform="translate(37.798 -47.903)"><path d="M0-1.367v-6.3H6.3" transform="translate(0 7.667)" fill="#fff"/></g><path d="M36.967-24.367h-6.3v-6.3h6.3Z" transform="translate(-5.468 -10.936)" fill="#fff"/><g transform="translate(0 -92.001)" clip-path="url(#a)"><g transform="translate(24.103 44.646)" opacity="0.8"><g clip-path="url(#b)"><path d="M44.633-24.367h-6.3v-6.3h6.3Z" transform="translate(-30.938 36.419)" fill="#fff"/></g></g><g transform="translate(17.804 50.946)" opacity="0.5"><g clip-path="url(#b)"><path d="M36.967-16.7h-6.3V-23h6.3Z" transform="translate(-23.272 28.752)" fill="#fff"/></g></g></g><path d="M36.967-9.034h-6.3v-6.3h6.3Z" transform="translate(-5.468 -13.67)" fill="#fff"/><g transform="translate(0 -92.001)" clip-path="url(#a)"><g transform="translate(24.103 57.246)" opacity="0.5"><g clip-path="url(#b)"><g transform="translate(7.395 5.752)"><path d="M-1.367-1.367h-6.3v-6.3" transform="translate(7.667 7.667)" fill="#fff"/></g></g></g></g><path d="M23-1.367h6.3v-6.3H23Z" transform="translate(-4.101 -15.037)" fill="#fff"/><g transform="translate(0 -92.001)" clip-path="url(#a)"><g transform="translate(17.804 63.545)" opacity="0.5"><g transform="translate(0 0)"><g clip-path="url(#b)"><g transform="translate(7.395 5.752)"><path d="M-1.367-1.367h-6.3v-6.3" transform="translate(7.667 7.667)" fill="#fff"/></g></g></g></g></g><path d="M38.334-1.367h6.3v-6.3h-6.3Z" transform="translate(-6.835 -15.037)" fill="#fff"/><g transform="translate(0 -92.001)" clip-path="url(#a)"><g transform="translate(30.403 63.545)" opacity="0.5"><g transform="translate(0 0)"><g clip-path="url(#b)"><path d="M52.3-1.367H46v-6.3h6.3Z" transform="translate(-38.605 13.419)" fill="#fff"/></g></g></g><g transform="translate(5.204 0.548)" opacity="0.8"><g clip-path="url(#b)"><g transform="translate(7.395 5.752)"><path d="M-1.367,0V6.3h-6.3Z" transform="translate(7.667)" fill="#fff"/></g></g></g><g transform="translate(73.37 28.007)"><path d="M-2.681-3.431A3.057,3.057,0,0,1-4.3-.578,10.306,10.306,0,0,1-9.233.34a15.133,15.133,0,0,1-2.72-.205,5.882,5.882,0,0,1-1.789-.592,2.44,2.44,0,0,1-.991-.943,2.581,2.581,0,0,1-.3-1.256,2.14,2.14,0,0,1,.568-1.584,3.421,3.421,0,0,1,1.608-.834v-.242a2.459,2.459,0,0,1-1-.677,1.684,1.684,0,0,1-.374-1.136,1.629,1.629,0,0,1,.629-1.39,4.419,4.419,0,0,1,1.62-.713v-.121a4.14,4.14,0,0,1-1.765-1.5,4.164,4.164,0,0,1-.629-2.321,4.362,4.362,0,0,1,.362-1.8,3.872,3.872,0,0,1,1.028-1.378,4.776,4.776,0,0,1,1.6-.883,6.515,6.515,0,0,1,2.091-.315,6.346,6.346,0,0,1,2.346.411v-.411a1.8,1.8,0,0,1,.41-1.209,1.562,1.562,0,0,1,1.258-.483h2.272v2.079h-2.9v.581A3.7,3.7,0,0,1-4.664-15.17a4.348,4.348,0,0,1,.435,2,4.366,4.366,0,0,1-.362,1.8A3.886,3.886,0,0,1-5.618-10a4.626,4.626,0,0,1-1.6.87,6.735,6.735,0,0,1-2.091.3,7.8,7.8,0,0,1-1.547-.145,3.073,3.073,0,0,0-.87.412.91.91,0,0,0-.436.8.678.678,0,0,0,.556.725,5.5,5.5,0,0,0,1.379.145h2.8a5.536,5.536,0,0,1,3.626.956,3.139,3.139,0,0,1,1.112,2.5m-2.466.155a1.2,1.2,0,0,0-.507-1.011,3.244,3.244,0,0,0-1.839-.378H-11.82a1.47,1.47,0,0,0-.919,1.413,1.562,1.562,0,0,0,.592,1.219,3.009,3.009,0,0,0,1.97.511h1.959a4.678,4.678,0,0,0,2.285-.45,1.427,1.427,0,0,0,.786-1.3m-4.159-7.36a2.574,2.574,0,0,0,1.887-.6,2.19,2.19,0,0,0,.6-1.62v-.653a2.189,2.189,0,0,0-.6-1.62,2.577,2.577,0,0,0-1.887-.6,2.574,2.574,0,0,0-1.886.6,2.189,2.189,0,0,0-.6,1.62v.653a2.19,2.19,0,0,0,.6,1.62,2.57,2.57,0,0,0,1.886.6" transform="translate(15.035 19.243)" fill="#fff"/></g><g transform="translate(88.287 29.99)"><path d="M0-2.24H3.313v-8.173H0v-2.151H5.947V-9.9h.145A5.193,5.193,0,0,1,6.6-10.9a3.593,3.593,0,0,1,.786-.859A3.676,3.676,0,0,1,8.5-12.347a4.464,4.464,0,0,1,1.438-.217H11.7v2.514H9.09a4.149,4.149,0,0,0-2.3.555,1.726,1.726,0,0,0-.846,1.518V-2.24h4.522V-.088H0Z" transform="translate(0 12.564)" fill="#fff"/></g><g transform="translate(102.406 29.699)"><path d="M-1.317-2.833A6.783,6.783,0,0,1-3.88-3.292,5.164,5.164,0,0,1-5.789-4.6,5.754,5.754,0,0,1-6.974-6.641a8.282,8.282,0,0,1-.411-2.7,8.173,8.173,0,0,1,.423-2.708,6.109,6.109,0,0,1,1.185-2.067,5.084,5.084,0,0,1,1.85-1.318,6.163,6.163,0,0,1,2.417-.459,6.06,6.06,0,0,1,2.37.448,5.067,5.067,0,0,1,1.813,1.269,5.653,5.653,0,0,1,1.149,1.958,7.542,7.542,0,0,1,.4,2.514v.992H-4.725V-8.3a3.244,3.244,0,0,0,.919,2.39,3.417,3.417,0,0,0,2.539.924A3.936,3.936,0,0,0,.8-5.5,4.078,4.078,0,0,0,2.189-6.882L3.833-5.427A5.1,5.1,0,0,1,1.911-3.585a6.336,6.336,0,0,1-3.228.752M-1.51-13.882A3.387,3.387,0,0,0-2.8-13.64a2.868,2.868,0,0,0-1.016.689A3.314,3.314,0,0,0-4.484-11.9a3.57,3.57,0,0,0-.241,1.33v.169H1.537v-.241A3.294,3.294,0,0,0,.7-13a2.9,2.9,0,0,0-2.212-.883" transform="translate(7.385 15.889)" fill="#fff"/></g><g transform="translate(116.913 29.699)"><path d="M-1.317-2.833A6.78,6.78,0,0,1-3.88-3.292,5.173,5.173,0,0,1-5.79-4.6,5.766,5.766,0,0,1-6.975-6.641a8.282,8.282,0,0,1-.41-2.7,8.152,8.152,0,0,1,.423-2.708,6.121,6.121,0,0,1,1.184-2.067,5.084,5.084,0,0,1,1.85-1.318,6.17,6.17,0,0,1,2.418-.459,6.056,6.056,0,0,1,2.369.448,5.077,5.077,0,0,1,1.813,1.269A5.639,5.639,0,0,1,3.82-12.214a7.542,7.542,0,0,1,.4,2.514v.992H-4.726V-8.3a3.247,3.247,0,0,0,.919,2.39,3.418,3.418,0,0,0,2.539.924A3.939,3.939,0,0,0,.8-5.5,4.085,4.085,0,0,0,2.189-6.882L3.833-5.427A5.1,5.1,0,0,1,1.911-3.585a6.34,6.34,0,0,1-3.228.752M-1.51-13.882A3.4,3.4,0,0,0-2.8-13.64a2.872,2.872,0,0,0-1.015.689A3.286,3.286,0,0,0-4.484-11.9a3.57,3.57,0,0,0-.242,1.33v.169H1.536v-.241A3.293,3.293,0,0,0,.7-13a2.9,2.9,0,0,0-2.212-.883" transform="translate(7.385 15.889)" fill="#fff"/></g><g transform="translate(131.999 29.699)"><path d="M0-2.77V-15.246H2.634v2.128h.122a4.879,4.879,0,0,1,.495-.931,3.22,3.22,0,0,1,.738-.774A3.562,3.562,0,0,1,5-15.342a4.283,4.283,0,0,1,1.353-.194A3.987,3.987,0,0,1,9.4-14.3a4.918,4.918,0,0,1,1.16,3.505V-2.77H7.93v-7.64q0-2.974-2.588-2.974a3.714,3.714,0,0,0-.991.133,2.874,2.874,0,0,0-.87.4,1.971,1.971,0,0,0-.616.677,1.9,1.9,0,0,0-.231.943V-2.77Z" transform="translate(0 15.536)" fill="#fff"/></g><g transform="translate(145.9 29.699)"><path d="M-1.27-2.833a8.517,8.517,0,0,1-3.493-.653,6.318,6.318,0,0,1-2.358-1.74l1.62-1.45a5.76,5.76,0,0,0,1.85,1.366,5.777,5.777,0,0,0,2.43.472A4.26,4.26,0,0,0,.846-5.275a1.443,1.443,0,0,0,.786-1.353,1.347,1.347,0,0,0-.145-.653,1.182,1.182,0,0,0-.411-.435,2.238,2.238,0,0,0-.616-.266,5.122,5.122,0,0,0-.738-.145l-1.982-.315a9.949,9.949,0,0,1-1.475-.315,4.745,4.745,0,0,1-1.342-.616A3.191,3.191,0,0,1-6.045-10.4,3.075,3.075,0,0,1-6.419-12a3.282,3.282,0,0,1,1.463-2.9A6.761,6.761,0,0,1-1.1-15.889a7.923,7.923,0,0,1,3.011.52A5.808,5.808,0,0,1,4.024-13.93L2.55-12.384a4.731,4.731,0,0,0-1.378-1.027A5.088,5.088,0,0,0-1.2-13.882q-2.636,0-2.636,1.668a1.133,1.133,0,0,0,.569,1.1,3.846,3.846,0,0,0,1.341.4L.06-10.4q.749.122,1.487.315a4.337,4.337,0,0,1,1.33.592,3.187,3.187,0,0,1,.966,1.027,3.079,3.079,0,0,1,.376,1.6A3.474,3.474,0,0,1,2.757-3.909,6.669,6.669,0,0,1-1.27-2.833" transform="translate(7.121 15.889)" fill="#fff"/></g><g transform="translate(160.89 29.699)"><path d="M0-.063H2.636V2.065h.145A4.532,4.532,0,0,1,4.256.288a3.924,3.924,0,0,1,2.3-.641,4.243,4.243,0,0,1,3.505,1.644,7.739,7.739,0,0,1,1.306,4.884,7.737,7.737,0,0,1-1.306,4.883A4.243,4.243,0,0,1,6.552,12.7a3.918,3.918,0,0,1-2.3-.641,4.543,4.543,0,0,1-1.475-1.777H2.636v6.963H0ZM5.464,10.551a2.917,2.917,0,0,0,2.309-.918,3.562,3.562,0,0,0,.81-2.443V5.16a3.559,3.559,0,0,0-.81-2.442A2.918,2.918,0,0,0,5.464,1.8a3.969,3.969,0,0,0-1.088.145,2.742,2.742,0,0,0-.895.435,2.188,2.188,0,0,0-.616.713,2.066,2.066,0,0,0-.229,1V8.254a2.068,2.068,0,0,0,.229,1,2.179,2.179,0,0,0,.616.713,2.725,2.725,0,0,0,.895.435,3.907,3.907,0,0,0,1.088.145" transform="translate(0 0.353)" fill="#fff"/></g><g transform="translate(174.937 29.699)"><path d="M-2.266-2.77a2.287,2.287,0,0,1-1.7-.58A2.57,2.57,0,0,1-4.66-4.874h-.121A3.211,3.211,0,0,1-6.1-3.109a4.34,4.34,0,0,1-2.431.629,4.435,4.435,0,0,1-3.046-1,3.5,3.5,0,0,1-1.136-2.768A3.186,3.186,0,0,1-11.369-9.02a7.153,7.153,0,0,1,4.122-.955h2.394v-.967q0-2.539-2.684-2.539a3.625,3.625,0,0,0-1.958.472,4.114,4.114,0,0,0-1.258,1.246l-1.571-1.282A4.506,4.506,0,0,1-10.535-14.8a6.336,6.336,0,0,1,3.24-.738A5.62,5.62,0,0,1-3.571-14.4a4.055,4.055,0,0,1,1.353,3.288v6.262H-.646V-2.77ZM-7.778-4.414a3.579,3.579,0,0,0,2.1-.576,1.752,1.752,0,0,0,.822-1.49v-1.8H-7.2q-2.855,0-2.854,1.706V-6.1a1.434,1.434,0,0,0,.6,1.261,2.885,2.885,0,0,0,1.669.421" transform="translate(12.711 15.536)" fill="#fff"/></g><g transform="translate(189.782 29.699)"><path d="M-1.285-2.833a6.435,6.435,0,0,1-2.5-.459A5.119,5.119,0,0,1-5.649-4.6a5.685,5.685,0,0,1-1.16-2.055,8.6,8.6,0,0,1-.4-2.707,8.605,8.605,0,0,1,.4-2.708,5.685,5.685,0,0,1,1.16-2.055A5.129,5.129,0,0,1-3.787-15.43a6.382,6.382,0,0,1,2.477-.459,5.355,5.355,0,0,1,3.107.813A5.019,5.019,0,0,1,3.55-12.964L1.495-11.851A3.019,3.019,0,0,0,.467-13.229a2.92,2.92,0,0,0-1.777-.509,2.963,2.963,0,0,0-2.32.913,3.473,3.473,0,0,0-.823,2.419v2.09A3.485,3.485,0,0,0-3.63-5.909a3.007,3.007,0,0,0,2.37.924,3.168,3.168,0,0,0,1.9-.532A3.7,3.7,0,0,0,1.81-6.967L3.744-5.783A5.107,5.107,0,0,1,1.906-3.658a5.636,5.636,0,0,1-3.191.825" transform="translate(7.208 15.889)" fill="#fff"/></g><g transform="translate(203.949 29.699)"><path d="M-1.317-2.833A6.78,6.78,0,0,1-3.88-3.292,5.157,5.157,0,0,1-5.789-4.6,5.741,5.741,0,0,1-6.974-6.641a8.281,8.281,0,0,1-.412-2.7,8.173,8.173,0,0,1,.423-2.708,6.122,6.122,0,0,1,1.185-2.067,5.087,5.087,0,0,1,1.85-1.318,6.162,6.162,0,0,1,2.417-.459,6.054,6.054,0,0,1,2.37.448,5.077,5.077,0,0,1,1.813,1.269A5.664,5.664,0,0,1,3.82-12.214,7.521,7.521,0,0,1,4.22-9.7v.992H-4.725V-8.3a3.244,3.244,0,0,0,.919,2.39,3.416,3.416,0,0,0,2.538.924A3.939,3.939,0,0,0,.8-5.5,4.078,4.078,0,0,0,2.188-6.882L3.832-5.427A5.1,5.1,0,0,1,1.911-3.585a6.338,6.338,0,0,1-3.228.752m-.194-11.049A3.386,3.386,0,0,0-2.8-13.64a2.868,2.868,0,0,0-1.016.689A3.3,3.3,0,0,0-4.485-11.9a3.554,3.554,0,0,0-.241,1.33v.169H1.536v-.241A3.293,3.293,0,0,0,.7-13a2.9,2.9,0,0,0-2.213-.883" transform="translate(7.386 15.889)" fill="#fff"/></g></g></g></svg>