<svg xmlns="http://www.w3.org/2000/svg" xmlns:xlink="http://www.w3.org/1999/xlink" width="141.442" height="179.191" viewBox="0 0 141.442 179.191"><defs><clipPath id="a"><path d="M0,5.917H141.442V-173.274H0Z" transform="translate(0 173.274)" fill="none"/></clipPath></defs><g transform="translate(-95 -50)"><g transform="translate(95 50)"><g transform="translate(59.615)"><path d="M.4,0-11.791,12.193H.4Z" transform="translate(11.791)" fill="#38f902"/></g><g transform="translate(47.423 12.193)"><path d="M.4,0V12.193H-11.79" transform="translate(11.79)" fill="#63af99"/></g><path d="M81.63-149.291H69.437v-12.193H81.63Z" transform="translate(2.371 173.677)" fill="#38f902"/><g transform="translate(84.001 12.193)"><path d="M0,.4H12.193V-11.79Z" transform="translate(0 11.79)" fill="#23fcfc"/></g><path d="M34.469-137.5H22.276v-12.193H34.469Z" transform="translate(0.761 174.079)" fill="#63af99"/><g transform="translate(47.423 24.386)"><path d="M0,0H12.193V12.193" fill="#38f902"/></g><g transform="translate(35.23 24.386)"><path d="M0,0H12.193V12.193" fill="#35967c"/></g><path d="M69.84-137.5H57.647v-12.193H69.84Z" transform="translate(1.968 174.079)" fill="#35967c"/><g transform="translate(71.808 24.386)"><path d="M.4,0V12.193H-11.79" transform="translate(11.79)" fill="#35967c"/></g><g transform="translate(10.844 36.579)"><path d="M0,.4H12.193V-11.79Z" transform="translate(0 11.79)" fill="#38f902"/></g><g transform="translate(35.23 36.579)"><path d="M0,.4V-11.79H12.193Z" transform="translate(0 11.79)" fill="#35967c"/></g><path d="M58.05-125.71H45.857V-137.9H58.05Z" transform="translate(1.566 174.482)" fill="#63af99"/><g transform="translate(59.616 36.579)"><path d="M.4.4H-11.79V-11.79" transform="translate(11.79 11.79)" fill="#35967c"/></g><g transform="translate(71.808 36.579)"><path d="M.4,0V12.193H-11.79" transform="translate(11.79)" fill="#35967c"/></g><path d="M93.421-125.71H81.228V-137.9H93.421Z" transform="translate(2.774 174.482)" fill="#38f902"/><path d="M105.211-137.5H93.018v-12.193h12.193Z" transform="translate(3.176 174.079)" fill="#35967c"/><path d="M93.421-113.92H81.228v-12.193H93.421Z" transform="translate(2.774 174.885)" fill="#35967c"/><g transform="translate(108.387 36.579)"><path d="M0,0V12.193H12.193" fill="#23fcfc"/></g><g transform="translate(23.037 48.772)"><path d="M0,0H12.193V12.193" fill="#38f902"/></g><path d="M34.469-102.13H22.276v-12.193H34.469Z" transform="translate(0.761 175.287)" fill="#23fcfc"/><g transform="translate(35.23 48.772)"><path d="M.4,0V12.193H-11.79" transform="translate(11.79)" fill="#0c3f35"/></g><path d="M58.05-113.92H45.857v-12.193H58.05Z" transform="translate(1.566 174.885)" fill="#38f902"/><path d="M58.05-102.13H45.857v-12.193H58.05Z" transform="translate(1.566 175.287)" fill="#0c3f35"/><g transform="translate(59.616 48.772)"><path d="M.4,0V12.193H-11.79" transform="translate(11.79)" fill="#23fcfc"/></g><g transform="translate(71.808 48.772)"><path d="M.4.4H-11.79V-11.79" transform="translate(11.79 11.79)" fill="#38f902"/></g><path d="M105.211-113.92H93.018v-12.193h12.193Z" transform="translate(3.176 174.885)" fill="#63af99"/><g transform="translate(35.23 60.965)"><path d="M.4.4H-11.79V-11.79" transform="translate(11.79 11.79)" fill="#38f902"/></g><g transform="translate(59.616 60.964)"><path d="M.4,0V12.193H-11.79" transform="translate(11.79)" fill="#23fcfc"/></g><path d="M81.63-102.13H69.437v-12.193H81.63Z" transform="translate(2.371 175.287)" fill="#23fcfc"/><g transform="translate(84.001 60.964)"><path d="M.4,0V12.193H-11.79" transform="translate(11.79)" fill="#38f902"/></g><g transform="translate(96.194 60.964)"><path d="M.4,0V12.193H-11.79" transform="translate(11.79)" fill="#35967c"/></g><g transform="translate(108.387 60.965)"><path d="M0,.4V-11.79H12.193Z" transform="translate(0 11.79)" fill="#38f902"/></g><g transform="translate(23.037 73.157)"><path d="M0,0H12.193V12.193" fill="#35967c"/></g><g transform="translate(47.423 73.158)"><path d="M0,.4V-11.79H12.193" transform="translate(0 11.79)" fill="#38f902"/></g><path d="M69.84-90.339H57.647v-12.193H69.84Z" transform="translate(1.968 175.69)" fill="#35967c"/><g transform="translate(71.808 73.158)"><path d="M.4.4H-11.79V-11.79" transform="translate(11.79 11.79)" fill="#23fcfc"/></g><path d="M93.421-90.339H81.228v-12.193H93.421Z" transform="translate(2.774 175.69)" fill="#0c3f35"/><g transform="translate(96.194 73.157)"><path d="M.4,0V12.193H-11.79" transform="translate(11.79)" fill="#38f902"/></g><path d="M46.26-78.549H34.067V-90.742H46.26Z" transform="translate(1.163 176.092)" fill="#38f902"/><path d="M58.05-78.549H45.857V-90.742H58.05Z" transform="translate(1.566 176.092)" fill="#35967c"/><path d="M81.63-78.549H69.437V-90.742H81.63Z" transform="translate(2.371 176.092)" fill="#35967c"/><g transform="translate(84.001 85.35)"><path d="M0,.4V-11.79H12.193" transform="translate(0 11.79)" fill="#23fcfc"/></g><path d="M69.84-66.759H57.647V-78.952H69.84Z" transform="translate(1.968 176.495)" fill="#0f6054"/><path d="M81.63-66.759H69.437V-78.952H81.63Z" transform="translate(2.371 176.495)" fill="#0f6054"/><path d="M69.84-54.969H57.647V-67.162H69.84Z" transform="translate(1.968 176.898)" fill="#0c3f35"/><path d="M69.84-43.178H57.647V-55.371H69.84Z" transform="translate(1.968 177.3)" fill="#0c3f35"/><g transform="translate(71.808 121.929)"><path d="M.4.4H-11.79V-11.79" transform="translate(11.79 11.79)" fill="#0c3f35"/></g><path d="M58.05-31.388H45.857V-43.581H58.05Z" transform="translate(1.566 177.703)" fill="#0f6054"/><g transform="translate(59.616 134.122)"><path d="M.4.4H-11.79V-11.79" transform="translate(11.79 11.79)" fill="#0c3f35"/></g><path d="M81.63-31.388H69.437V-43.581H81.63Z" transform="translate(2.371 177.703)" fill="#0c3f35"/><path d="M93.421-31.388H81.228V-43.581H93.421Z" transform="translate(2.774 177.703)" fill="#0f6054"/><g transform="translate(35.23 12.193)"><path d="M.4,0V12.193H-11.79Z" transform="translate(11.79)" fill="#38f902"/></g><g transform="translate(0 0)" clip-path="url(#a)"><g transform="translate(0 159.71)"><path d="M.406.519A3.041,3.041,0,0,1-1.205,3.357a10.251,10.251,0,0,1-4.907.914,15.046,15.046,0,0,1-2.705-.2,5.842,5.842,0,0,1-1.78-.588,2.43,2.43,0,0,1-.986-.939,2.573,2.573,0,0,1-.3-1.25,2.13,2.13,0,0,1,.565-1.575,3.414,3.414,0,0,1,1.6-.83v-.24a2.446,2.446,0,0,1-1-.673,1.673,1.673,0,0,1-.372-1.13,1.621,1.621,0,0,1,.626-1.384,4.4,4.4,0,0,1,1.612-.709v-.12a4.112,4.112,0,0,1-1.756-1.491,4.135,4.135,0,0,1-.626-2.309,4.343,4.343,0,0,1,.36-1.791,3.849,3.849,0,0,1,1.023-1.371,4.763,4.763,0,0,1,1.587-.878,6.471,6.471,0,0,1,2.081-.312,6.3,6.3,0,0,1,2.333.408v-.408a1.788,1.788,0,0,1,.408-1.2,1.551,1.551,0,0,1,1.25-.481H.069v2.068H-2.817v.577a3.692,3.692,0,0,1,1.25,1.406,4.325,4.325,0,0,1,.433,1.985,4.332,4.332,0,0,1-.361,1.792A3.871,3.871,0,0,1-2.516-6.01,4.61,4.61,0,0,1-4.1-5.145a6.716,6.716,0,0,1-2.081.3,7.857,7.857,0,0,1-1.54-.145,3.038,3.038,0,0,0-.866.408.907.907,0,0,0-.433.794.675.675,0,0,0,.553.721A5.483,5.483,0,0,0-7.1-2.92h2.79A5.507,5.507,0,0,1-.7-1.97,3.124,3.124,0,0,1,.406.519M-2.047.674a1.189,1.189,0,0,0-.5-1.006A3.224,3.224,0,0,0-4.38-.707H-8.685A1.462,1.462,0,0,0-9.6.7,1.553,1.553,0,0,0-9.01,1.91a3,3,0,0,0,1.96.509H-5.1a4.658,4.658,0,0,0,2.273-.448,1.419,1.419,0,0,0,.782-1.3M-6.184-6.648a2.558,2.558,0,0,0,1.876-.6,2.176,2.176,0,0,0,.6-1.611V-9.51a2.175,2.175,0,0,0-.6-1.611,2.558,2.558,0,0,0-1.876-.6,2.557,2.557,0,0,0-1.876.6,2.175,2.175,0,0,0-.6,1.611v.649a2.177,2.177,0,0,0,.6,1.611,2.557,2.557,0,0,0,1.876.6" transform="translate(11.884 15.21)" fill="#0f6054"/></g><g transform="translate(14.839 161.681)"><path d="M0,.339H3.3V-7.79H0V-9.931H5.916v2.645h.145a5.2,5.2,0,0,1,.506-.986,3.566,3.566,0,0,1,.781-.854,3.668,3.668,0,0,1,1.107-.589,4.45,4.45,0,0,1,1.431-.216H11.64v2.5h-2.6a4.134,4.134,0,0,0-2.284.551,1.718,1.718,0,0,0-.842,1.511V.339h4.5V2.48H0Z" transform="translate(0 9.931)" fill="#0f6054"/></g><g transform="translate(28.885 161.393)"><path d="M.2.429A6.742,6.742,0,0,1-2.35-.028a5.12,5.12,0,0,1-1.9-1.3A5.724,5.724,0,0,1-5.429-3.359a8.213,8.213,0,0,1-.408-2.682,8.132,8.132,0,0,1,.421-2.694,6.067,6.067,0,0,1,1.179-2.056A5.061,5.061,0,0,1-2.4-12.1a6.141,6.141,0,0,1,2.405-.457,6.03,6.03,0,0,1,2.358.446,5.044,5.044,0,0,1,1.8,1.263A5.643,5.643,0,0,1,5.311-8.9a7.534,7.534,0,0,1,.4,2.5v.986h-8.9v.406a3.223,3.223,0,0,0,.914,2.378,3.394,3.394,0,0,0,2.525.92A3.913,3.913,0,0,0,2.3-2.226,4.072,4.072,0,0,0,3.686-3.6L5.322-2.151A5.093,5.093,0,0,1,3.41-.319,6.305,6.305,0,0,1,.2.429M.007-10.562a3.388,3.388,0,0,0-1.286.24,2.857,2.857,0,0,0-1.01.686A3.3,3.3,0,0,0-2.952-8.59a3.554,3.554,0,0,0-.24,1.323V-7.1h6.23v-.24a3.272,3.272,0,0,0-.83-2.344,2.882,2.882,0,0,0-2.2-.878" transform="translate(5.837 12.559)" fill="#0f6054"/></g><g transform="translate(43.316 161.393)"><path d="M.2.429A6.742,6.742,0,0,1-2.35-.028a5.132,5.132,0,0,1-1.9-1.3A5.739,5.739,0,0,1-5.43-3.359a8.241,8.241,0,0,1-.407-2.682,8.105,8.105,0,0,1,.421-2.694,6.082,6.082,0,0,1,1.178-2.056A5.065,5.065,0,0,1-2.4-12.1a6.137,6.137,0,0,1,2.405-.457,6.021,6.021,0,0,1,2.357.446,5.048,5.048,0,0,1,1.8,1.263A5.624,5.624,0,0,1,5.31-8.9a7.507,7.507,0,0,1,.4,2.5v.986h-8.9v.406a3.227,3.227,0,0,0,.913,2.378,3.4,3.4,0,0,0,2.525.92A3.91,3.91,0,0,0,2.3-2.226,4.066,4.066,0,0,0,3.686-3.6L5.322-2.151A5.093,5.093,0,0,1,3.41-.319,6.311,6.311,0,0,1,.2.429M.007-10.562a3.4,3.4,0,0,0-1.288.24,2.862,2.862,0,0,0-1.009.686A3.262,3.262,0,0,0-2.952-8.59a3.533,3.533,0,0,0-.24,1.323V-7.1H3.037v-.24a3.272,3.272,0,0,0-.829-2.344,2.882,2.882,0,0,0-2.2-.878" transform="translate(5.837 12.559)" fill="#0f6054"/></g><g transform="translate(58.323 161.393)"><path d="M0,.419V-11.991H2.621v2.117h.121a4.953,4.953,0,0,1,.492-.926,3.207,3.207,0,0,1,.734-.77,3.564,3.564,0,0,1,1.01-.517,4.292,4.292,0,0,1,1.346-.192,3.965,3.965,0,0,1,3.03,1.226A4.893,4.893,0,0,1,10.51-7.565V.419H7.888v-7.6q0-2.96-2.574-2.959a3.712,3.712,0,0,0-.986.132,2.819,2.819,0,0,0-.866.4,1.963,1.963,0,0,0-.613.673A1.884,1.884,0,0,0,2.621-8V.419Z" transform="translate(0 12.28)" fill="#0f6054"/></g><g transform="translate(72.152 161.393)"><path d="M.192.429A8.475,8.475,0,0,1-3.283-.221,6.275,6.275,0,0,1-5.628-1.952L-4.017-3.4a5.729,5.729,0,0,0,1.84,1.359A5.742,5.742,0,0,0,.24-1.568,4.237,4.237,0,0,0,2.3-2a1.436,1.436,0,0,0,.782-1.346A1.34,1.34,0,0,0,2.934-4a1.178,1.178,0,0,0-.408-.433,2.237,2.237,0,0,0-.613-.265,5.184,5.184,0,0,0-.734-.144L-.793-5.151a9.8,9.8,0,0,1-1.467-.312A4.712,4.712,0,0,1-3.6-6.077,3.163,3.163,0,0,1-4.558-7.1a3.048,3.048,0,0,1-.373-1.586,3.266,3.266,0,0,1,1.455-2.886,6.721,6.721,0,0,1,3.837-.987,7.893,7.893,0,0,1,2.995.517,5.81,5.81,0,0,1,2.1,1.431L3.993-9.072a4.725,4.725,0,0,0-1.371-1.022,5.074,5.074,0,0,0-2.357-.468q-2.622,0-2.622,1.659a1.129,1.129,0,0,0,.565,1.1,3.854,3.854,0,0,0,1.335.4L1.515-7.1q.746.121,1.48.313A4.307,4.307,0,0,1,4.317-6.2a3.182,3.182,0,0,1,.962,1.022,3.064,3.064,0,0,1,.373,1.587A3.457,3.457,0,0,1,4.2-.642,6.64,6.64,0,0,1,.192.429" transform="translate(5.628 12.559)" fill="#0f6054"/></g><g transform="translate(87.063 161.393)"><path d="M0,.01H2.623V2.126h.144A4.512,4.512,0,0,1,4.234.358,3.9,3.9,0,0,1,6.518-.279a4.224,4.224,0,0,1,3.487,1.635,7.7,7.7,0,0,1,1.3,4.859,7.693,7.693,0,0,1-1.3,4.857,4.222,4.222,0,0,1-3.487,1.636,3.9,3.9,0,0,1-2.284-.637A4.512,4.512,0,0,1,2.766,10.3H2.623V17.23H0ZM5.435,10.568a2.9,2.9,0,0,0,2.3-.913,3.541,3.541,0,0,0,.807-2.43V5.205a3.537,3.537,0,0,0-.807-2.429,2.9,2.9,0,0,0-2.3-.914,3.918,3.918,0,0,0-1.082.145,2.693,2.693,0,0,0-.89.432,2.173,2.173,0,0,0-.613.709,2.067,2.067,0,0,0-.228,1V8.284a2.067,2.067,0,0,0,.228,1,2.173,2.173,0,0,0,.613.709,2.714,2.714,0,0,0,.89.432,3.879,3.879,0,0,0,1.082.145" transform="translate(0 0.279)" fill="#0f6054"/></g><g transform="translate(101.037 161.393)"><path d="M.343.419A2.271,2.271,0,0,1-1.352-.158a2.555,2.555,0,0,1-.686-1.515h-.121A3.193,3.193,0,0,1-3.469.083,4.326,4.326,0,0,1-5.887.708a4.414,4.414,0,0,1-3.03-1,3.482,3.482,0,0,1-1.13-2.754A3.17,3.17,0,0,1-8.712-5.8a7.12,7.12,0,0,1,4.1-.95H-2.23V-7.71q0-2.525-2.669-2.525a3.608,3.608,0,0,0-1.949.47A4.08,4.08,0,0,0-8.1-8.527L-9.662-9.8a4.485,4.485,0,0,1,1.78-1.744A6.3,6.3,0,0,1-4.66-12.28,5.6,5.6,0,0,1-.955-11.15,4.036,4.036,0,0,1,.391-7.878v6.229H1.955V.419ZM-5.14-1.217A3.558,3.558,0,0,0-3.048-1.79,1.742,1.742,0,0,0-2.23-3.272V-5.065H-4.563q-2.839,0-2.839,1.7v.478a1.426,1.426,0,0,0,.6,1.255,2.864,2.864,0,0,0,1.66.418" transform="translate(10.047 12.28)" fill="#0f6054"/></g><g transform="translate(115.804 161.393)"><path d="M.195.429A6.4,6.4,0,0,1-2.295-.028a5.094,5.094,0,0,1-1.852-1.3A5.669,5.669,0,0,1-5.3-3.372a8.553,8.553,0,0,1-.4-2.693,8.559,8.559,0,0,1,.4-2.694A5.678,5.678,0,0,1-4.147-10.8a5.106,5.106,0,0,1,1.852-1.3,6.353,6.353,0,0,1,2.465-.457,5.328,5.328,0,0,1,3.09.809,4.992,4.992,0,0,1,1.745,2.1L2.96-8.542a2.992,2.992,0,0,0-1.022-1.37,2.9,2.9,0,0,0-1.767-.506,2.947,2.947,0,0,0-2.309.907A3.458,3.458,0,0,0-2.956-7.1v2.08a3.469,3.469,0,0,0,.818,2.4,2.991,2.991,0,0,0,2.358.918A3.158,3.158,0,0,0,2.107-2.24,3.687,3.687,0,0,0,3.274-3.684L5.2-2.506A5.092,5.092,0,0,1,3.369-.391,5.612,5.612,0,0,1,.195.429" transform="translate(5.698 12.559)" fill="#0f6054"/></g><g transform="translate(129.897 161.393)"><path d="M.2.429A6.738,6.738,0,0,1-2.35-.028a5.112,5.112,0,0,1-1.9-1.3A5.724,5.724,0,0,1-5.428-3.359a8.212,8.212,0,0,1-.41-2.682,8.132,8.132,0,0,1,.421-2.694,6.084,6.084,0,0,1,1.179-2.056A5.065,5.065,0,0,1-2.4-12.1a6.137,6.137,0,0,1,2.405-.457,6.021,6.021,0,0,1,2.357.446,5.048,5.048,0,0,1,1.8,1.263A5.64,5.64,0,0,1,5.31-8.9a7.507,7.507,0,0,1,.4,2.5v.986h-8.9v.406a3.223,3.223,0,0,0,.914,2.378,3.393,3.393,0,0,0,2.524.92A3.91,3.91,0,0,0,2.3-2.226,4.066,4.066,0,0,0,3.686-3.6L5.321-2.151A5.082,5.082,0,0,1,3.41-.319,6.308,6.308,0,0,1,.2.429M.007-10.562a3.387,3.387,0,0,0-1.286.24,2.857,2.857,0,0,0-1.01.686A3.28,3.28,0,0,0-2.952-8.59a3.533,3.533,0,0,0-.24,1.323V-7.1H3.037v-.24a3.272,3.272,0,0,0-.829-2.344,2.884,2.884,0,0,0-2.2-.878" transform="translate(5.838 12.559)" fill="#0f6054"/></g></g></g></g></svg>