<svg xmlns="http://www.w3.org/2000/svg" xmlns:xlink="http://www.w3.org/1999/xlink" width="211.718" height="64.305" viewBox="0 0 211.718 64.305"><defs><clipPath id="a"><rect width="211.718" height="64.305" fill="none"/></clipPath></defs><g clip-path="url(#a)"><path d="M138.3,71.717c-4.692,0-6.343-1.241-6.343-3.28,0-1.48.853-2.244,2.376-2.64v-.264a2.014,2.014,0,0,1-1.506-1.984c0-1.348,1.032-1.958,2.461-2.3v-.115a4.385,4.385,0,0,1-2.619-4.176c0-2.909,2.193-4.786,5.545-4.786a7.063,7.063,0,0,1,2.559.448v-.444a1.707,1.707,0,0,1,1.55-1.849,1.744,1.744,0,0,1,.271,0h2.487V52.6h-3.157v.636a4.3,4.3,0,0,1,1.851,3.728c0,2.9-2.193,4.756-5.545,4.756a8.483,8.483,0,0,1-1.706-.158c-.636.158-1.429.58-1.429,1.322,0,.853.926.951,2.133.951H140.3c3.673,0,5.183,1.531,5.183,3.779-.013,2.781-2.367,4.1-7.179,4.1m1.92-5.464h-4.748a1.6,1.6,0,0,0-1.007,1.536c0,1.028.793,1.877,2.8,1.877H139.4c2.171,0,3.357-.661,3.357-1.907.021-.9-.623-1.506-2.538-1.506m.725-8.958v-.725c0-1.455-.853-2.431-2.726-2.431s-2.721.977-2.721,2.431v.725c0,1.455.853,2.431,2.721,2.431s2.726-.99,2.726-2.431" transform="translate(-75.67 -28.855)" fill="#106253"/><path d="M170.19,66.677h3.622V57.689H170.19V55.36h6.5v3.622h.162c.525-1.9,1.706-3.622,4.492-3.622h1.638v2.751h-2.7a3.324,3.324,0,0,0-3.6,3.464v5.119h4.944v2.325H170.19Z" transform="translate(-97.593 -31.745)" fill="#106253"/><path d="M206.33,61.811c0-4.385,2.559-7.141,6.441-7.141s6.266,2.747,6.266,6.765v1.088h-9.781v.427a3.5,3.5,0,0,0,3.779,3.647,4.219,4.219,0,0,0,3.784-2.09l1.8,1.587a6.212,6.212,0,0,1-5.631,2.828c-4.176,0-6.654-2.773-6.654-7.111m2.909-1.348v.179h6.846v-.264a3.244,3.244,0,0,0-3.331-3.545,3.454,3.454,0,0,0-3.5,3.63Z" transform="translate(-118.317 -31.35)" fill="#106253"/><path d="M243.55,61.782c0-4.385,2.538-7.162,6.424-7.162s6.279,2.747,6.279,6.765v1.088h-9.811V62.9a3.5,3.5,0,0,0,3.779,3.647A4.211,4.211,0,0,0,254,64.457l1.8,1.587a6.212,6.212,0,0,1-5.631,2.828c-4.155.021-6.62-2.751-6.62-7.09m2.909-1.348v.179h6.825v-.264a3.244,3.244,0,0,0-3.331-3.545,3.464,3.464,0,0,0-3.511,3.63Z" transform="translate(-139.66 -31.321)" fill="#106253"/><path d="M282.22,68.556V54.906H285.1v2.329h.154a3.921,3.921,0,0,1,3.941-2.645c2.747,0,4.6,1.877,4.6,5.183v8.774h-2.884V60.2c0-2.167-.977-3.255-2.828-3.255-1.48,0-2.96.768-2.96,2.355v9.252Z" transform="translate(-161.834 -31.3)" fill="#106253"/><path d="M317.84,66.244l1.775-1.587a5.942,5.942,0,0,0,4.692,2.009c1.847,0,3.118-.606,3.118-1.958,0-1.16-.926-1.48-2.09-1.638l-2.167-.358c-2.133-.32-4.547-1.083-4.547-3.886s2.329-4.266,5.818-4.266a7.256,7.256,0,0,1,5.6,2.133L328.427,58.4a5.114,5.114,0,0,0-4.1-1.642c-1.877,0-2.884.636-2.884,1.826s.951,1.48,2.09,1.638l2.167.346c2.167.316,4.547,1.058,4.547,3.839s-2.274,4.415-6,4.415a7.824,7.824,0,0,1-6.411-2.576" transform="translate(-182.26 -31.287)" fill="#106253"/><path d="M356.26,54.932h2.884v2.329h.158a4.308,4.308,0,0,1,4.125-2.645c3.2,0,5.26,2.457,5.26,7.136s-2.065,7.136-5.26,7.136a4.308,4.308,0,0,1-4.125-2.64h-.158v7.614H356.26Zm9.384,7.93V60.644c0-2.222-1.241-3.677-3.413-3.677-1.668,0-3.093.853-3.093,2.512v4.543c0,1.668,1.425,2.512,3.093,2.512,2.163,0,3.413-1.45,3.413-3.673" transform="translate(-204.291 -31.317)" fill="#106253"/><path d="M403.679,68.577a2.386,2.386,0,0,1-2.615-2.3h-.132c-.529,1.638-1.958,2.615-4.1,2.615-2.777,0-4.573-1.557-4.573-4.121,0-2.645,1.928-4.074,5.972-4.074h2.615V59.641c0-1.821-.977-2.773-2.935-2.773a3.839,3.839,0,0,0-3.515,1.877l-1.706-1.4c.768-1.48,2.619-2.721,5.5-2.721,3.438,0,5.545,1.706,5.545,4.837V66.3h1.706v2.274Zm-2.828-4.069V62.524h-2.559c-2.133,0-3.118.661-3.118,1.877v.529c0,1.216.951,1.851,2.483,1.851,1.847,0,3.195-.926,3.195-2.274" transform="translate(-224.935 -31.321)" fill="#106253"/><path d="M430.33,61.756c0-4.36,2.431-7.136,6.45-7.136a5.348,5.348,0,0,1,5.315,3.225l-2.248,1.216A3.033,3.033,0,0,0,436.78,57a3.287,3.287,0,0,0-3.438,3.622V62.9a3.3,3.3,0,0,0,3.489,3.622,3.473,3.473,0,0,0,3.357-2.167l2.133,1.28a5.586,5.586,0,0,1-5.5,3.25c-4.1.013-6.492-2.76-6.492-7.124" transform="translate(-246.766 -31.321)" fill="#106253"/><path d="M466.62,61.782c0-4.385,2.559-7.162,6.424-7.162s6.249,2.747,6.249,6.765v1.088h-9.768V62.9a3.5,3.5,0,0,0,3.784,3.647,4.215,4.215,0,0,0,3.779-2.09l1.8,1.587a6.212,6.212,0,0,1-5.631,2.828c-4.176.021-6.633-2.751-6.633-7.09m2.9-1.348v.179h6.825v-.264a3.241,3.241,0,0,0-3.327-3.545,3.454,3.454,0,0,0-3.5,3.63" transform="translate(-267.576 -31.321)" fill="#106253"/><path d="M55.608,0V5.358H50.25" transform="translate(-28.815)" fill="#39f903"/><path d="M37.69,17.922h5.358V12.56Z" transform="translate(-21.613 -7.202)" fill="#64af98"/><rect width="5.358" height="5.358" transform="translate(26.793 5.358)" fill="#39f903"/><path d="M75.38,17.922h5.358V12.56Z" transform="translate(-43.225 -7.202)" fill="#24fcfc"/><rect width="5.358" height="5.358" transform="translate(5.358 10.72)" fill="#64af98"/><path d="M43.048,30.488V25.13H37.69Z" transform="translate(-21.613 -14.41)" fill="#39f903"/><path d="M30.488,30.488V25.13H25.13Z" transform="translate(-14.41 -14.41)" fill="#35967d"/><rect width="5.358" height="5.358" transform="translate(21.435 10.72)" fill="#35967d"/><path d="M62.81,30.488h5.362V25.13Z" transform="translate(-36.017 -14.41)" fill="#35967d"/><path d="M0,43.048H5.358V37.69Z" transform="translate(0 -21.613)" fill="#39f903"/><path d="M25.13,43.048V37.69h5.358Z" transform="translate(-14.41 -21.613)" fill="#35967d"/><rect width="5.358" height="5.358" transform="translate(16.077 16.077)" fill="#64af98"/><path d="M55.608,43.048H50.25V37.69Z" transform="translate(-28.815 -21.613)" fill="#35967d"/><path d="M62.81,43.048h5.362V37.69Z" transform="translate(-36.017 -21.613)" fill="#35967d"/><rect width="5.358" height="5.358" transform="translate(32.155 16.077)" fill="#39f903"/><rect width="5.358" height="5.358" transform="translate(37.512 10.72)" fill="#35967d"/><rect width="5.358" height="5.358" transform="translate(32.155 21.435)" fill="#35967d"/><path d="M105.858,43.048H100.5V37.69Z" transform="translate(-57.63 -21.613)" fill="#24fcfc"/><path d="M17.922,55.608V50.25H12.56Z" transform="translate(-7.202 -28.815)" fill="#39f903"/><rect width="5.358" height="5.358" transform="translate(5.358 26.793)" fill="#24fcfc"/><path d="M25.13,55.608h5.358V50.25Z" transform="translate(-14.41 -28.815)" fill="#0e3f36"/><rect width="5.358" height="5.358" transform="translate(16.077 21.435)" fill="#39f903"/><rect width="5.358" height="5.358" transform="translate(16.077 26.793)" fill="#0e3f36"/><path d="M55.608,50.25v5.358H50.25Z" transform="translate(-28.815 -28.815)" fill="#24fcfc"/><path d="M68.172,55.608H62.81V50.25Z" transform="translate(-36.017 -28.815)" fill="#39f903"/><rect width="5.358" height="5.358" transform="translate(37.512 21.435)" fill="#64af98"/><path d="M30.488,68.172H25.13V62.81Z" transform="translate(-14.41 -36.017)" fill="#39f903"/><path d="M50.25,68.172h5.358V62.81Z" transform="translate(-28.815 -36.017)" fill="#24fcfc"/><rect width="5.358" height="5.358" transform="translate(26.793 26.793)" fill="#64af98"/><path d="M80.738,62.81v5.362H75.38Z" transform="translate(-43.225 -36.017)" fill="#39f903"/><path d="M87.94,68.172H93.3V62.81Z" transform="translate(-50.428 -36.017)" fill="#35967d"/><path d="M100.5,68.172V62.81h5.358Z" transform="translate(-57.63 -36.017)" fill="#39f903"/><path d="M17.922,80.738V75.38H12.56Z" transform="translate(-7.202 -43.225)" fill="#35967d"/><path d="M37.69,80.738V75.38h5.358Z" transform="translate(-21.613 -43.225)" fill="#39f903"/><rect width="5.358" height="5.358" transform="translate(21.435 32.155)" fill="#35967d"/><path d="M68.172,80.738H62.81V75.38Z" transform="translate(-36.017 -43.225)" fill="#24fcfc"/><rect width="5.358" height="5.358" transform="translate(32.155 32.155)" fill="#0e3f36"/><path d="M87.94,80.738H93.3V75.38Z" transform="translate(-50.428 -43.225)" fill="#39f903"/><rect width="5.358" height="5.358" transform="translate(10.72 37.512)" fill="#39f903"/><rect width="5.358" height="5.358" transform="translate(16.077 37.512)" fill="#35967d"/><rect width="5.358" height="5.358" transform="translate(26.793 37.512)" fill="#35967d"/><path d="M75.38,93.3V87.94h5.358Z" transform="translate(-43.225 -50.428)" fill="#24fcfc"/><rect width="10.72" height="5.358" transform="translate(21.435 42.87)" fill="#106253"/><rect width="5.358" height="5.358" transform="translate(16.077 58.947)" fill="#106253"/><path d="M55.608,143.548H50.25V138.19Z" transform="translate(-28.815 -79.243)" fill="#0e3f36"/><path d="M55.608,118.422V113.06H50.25v10.72h5.358v5.358H60.97V123.78Z" transform="translate(-28.815 -64.832)" fill="#0e3f36"/><rect width="5.358" height="5.358" transform="translate(32.155 58.947)" fill="#106253"/><path d="M30.488,12.56v5.362H25.13Z" transform="translate(-14.41 -7.202)" fill="#39f903"/></g></svg>