<svg id="logo-green" xmlns="http://www.w3.org/2000/svg" width="73.5" height="98" viewBox="0 0 73.5 98">
  <path id="Path_3341" data-name="Path 3341" d="M111.019,0l-8.167,8.167h8.167Z" transform="translate(-70.185 0)" fill="#0f6054"/>
  <path id="Path_3342" data-name="Path 3342" d="M77.139,33.88h8.167V25.713Z" transform="translate(-52.639 -17.547)" fill="#cfdfdd"/>
  <rect id="Rectangle_384" data-name="Rectangle 384" width="8.167" height="8.167" transform="translate(40.833 8.167)" fill="#0a443a"/>
  <path id="Path_3343" data-name="Path 3343" d="M154.278,33.88h8.167V25.713Z" transform="translate(-105.278 -17.547)" fill="#9fc0bb"/>
  <rect id="Rectangle_385" data-name="Rectangle 385" width="8.167" height="8.167" transform="translate(8.167 16.333)" fill="#cfdfdd"/>
  <path id="Path_3344" data-name="Path 3344" d="M85.306,59.593V51.426H77.139Z" transform="translate(-52.639 -35.093)" fill="#0f6054"/>
  <path id="Path_3345" data-name="Path 3345" d="M59.593,59.593V51.426H51.426Z" transform="translate(-35.093 -35.093)" fill="#579087"/>
  <rect id="Rectangle_386" data-name="Rectangle 386" width="8.167" height="8.167" transform="translate(32.667 16.333)" fill="#579087"/>
  <path id="Path_3346" data-name="Path 3346" d="M128.565,59.593h8.167V51.426Z" transform="translate(-87.732 -35.093)" fill="#0a443a"/>
  <path id="Path_3347" data-name="Path 3347" d="M0,85.306H8.167V77.139Z" transform="translate(0 -52.639)" fill="#0f6054"/>
  <path id="Path_3348" data-name="Path 3348" d="M51.426,85.306V77.14h8.167Z" transform="translate(-35.093 -52.639)" fill="#579087"/>
  <rect id="Rectangle_387" data-name="Rectangle 387" width="8.167" height="8.167" transform="translate(24.5 24.5)" fill="#cfdfdd"/>
  <path id="Path_3349" data-name="Path 3349" d="M111.019,85.306h-8.167V77.14Z" transform="translate(-70.186 -52.639)" fill="#0a443a"/>
  <path id="Path_3350" data-name="Path 3350" d="M128.565,85.306h8.167V77.14Z" transform="translate(-87.732 -52.639)" fill="#579087"/>
  <rect id="Rectangle_388" data-name="Rectangle 388" width="8.167" height="8.167" transform="translate(49 24.5)" fill="#0a443a"/>
  <rect id="Rectangle_389" data-name="Rectangle 389" width="8.167" height="8.167" transform="translate(57.166 16.333)" fill="#579087"/>
  <rect id="Rectangle_390" data-name="Rectangle 390" width="8.167" height="8.167" transform="translate(49 32.667)" fill="#579087"/>
  <path id="Path_3351" data-name="Path 3351" d="M205.7,85.306h8.167L205.7,77.139Z" transform="translate(-140.371 -52.639)" fill="#9fc0bb"/>
  <path id="Path_3352" data-name="Path 3352" d="M33.88,111.019v-8.167H25.713Z" transform="translate(-17.546 -70.186)" fill="#0a443a"/>
  <rect id="Rectangle_391" data-name="Rectangle 391" width="8.167" height="8.167" transform="translate(8.167 40.834)" fill="#9fc0bb"/>
  <path id="Path_3353" data-name="Path 3353" d="M51.426,111.019h8.167v-8.167Z" transform="translate(-35.093 -70.186)" fill="#579087"/>
  <rect id="Rectangle_392" data-name="Rectangle 392" width="8.167" height="8.167" transform="translate(24.5 32.667)" fill="#0f6054"/>
  <rect id="Rectangle_393" data-name="Rectangle 393" width="8.167" height="8.167" transform="translate(24.5 40.834)" fill="#0a443a"/>
  <path id="Path_3354" data-name="Path 3354" d="M111.019,102.853v8.167h-8.167Z" transform="translate(-70.186 -70.186)" fill="#9fc0bb"/>
  <path id="Path_3355" data-name="Path 3355" d="M136.732,111.019h-8.167v-8.167Z" transform="translate(-87.732 -70.186)" fill="#0f6054"/>
  <rect id="Rectangle_394" data-name="Rectangle 394" width="8.167" height="8.167" transform="translate(57.166 32.667)" fill="#cfdfdd"/>
  <path id="Path_3356" data-name="Path 3356" d="M59.593,136.732H51.426v-8.167Z" transform="translate(-35.093 -87.732)" fill="#0f6054"/>
  <path id="Path_3357" data-name="Path 3357" d="M102.852,136.732h8.167v-8.167Z" transform="translate(-70.186 -87.732)" fill="#9fc0bb"/>
  <rect id="Rectangle_395" data-name="Rectangle 395" width="8.167" height="8.167" transform="translate(40.833 40.834)" fill="#cfdfdd"/>
  <path id="Path_3358" data-name="Path 3358" d="M162.445,128.566v8.167h-8.167Z" transform="translate(-105.278 -87.732)" fill="#0f6054"/>
  <path id="Path_3359" data-name="Path 3359" d="M179.991,136.732h8.167v-8.167Z" transform="translate(-122.825 -87.732)" fill="#0a443a"/>
  <path id="Path_3360" data-name="Path 3360" d="M205.7,128.566v8.167l8.167-8.167Z" transform="translate(-140.371 -87.732)" fill="#0f6054"/>
  <path id="Path_3361" data-name="Path 3361" d="M25.713,154.279H33.88v8.167" transform="translate(-17.546 -105.279)" fill="#579087"/>
  <path id="Path_3362" data-name="Path 3362" d="M77.139,162.445v-8.167h8.167Z" transform="translate(-52.639 -105.279)" fill="#0a443a"/>
  <rect id="Rectangle_396" data-name="Rectangle 396" width="8.167" height="8.167" transform="translate(32.667 49)" fill="#579087"/>
  <path id="Path_3363" data-name="Path 3363" d="M136.732,162.445h-8.167v-8.167Z" transform="translate(-87.732 -105.279)" fill="#9fc0bb"/>
  <rect id="Rectangle_397" data-name="Rectangle 397" width="8.167" height="8.167" transform="translate(49 49)" fill="#0a443a"/>
  <path id="Path_3364" data-name="Path 3364" d="M179.991,162.445h8.167v-8.167Z" transform="translate(-122.825 -105.279)" fill="#0f6054"/>
  <rect id="Rectangle_398" data-name="Rectangle 398" width="8.167" height="8.167" transform="translate(16.333 57.167)" fill="#0a443a"/>
  <rect id="Rectangle_399" data-name="Rectangle 399" width="8.167" height="8.167" transform="translate(24.5 57.167)" fill="#579087"/>
  <rect id="Rectangle_400" data-name="Rectangle 400" width="8.167" height="8.167" transform="translate(40.833 57.167)" fill="#579087"/>
  <path id="Path_3365" data-name="Path 3365" d="M154.278,188.158v-8.167h8.167Z" transform="translate(-105.278 -122.825)" fill="#9fc0bb"/>
  <rect id="Rectangle_401" data-name="Rectangle 401" width="8.167" height="8.167" transform="translate(32.667 65.333)" fill="#cfdfdd"/>
  <rect id="Rectangle_402" data-name="Rectangle 402" width="8.167" height="8.167" transform="translate(40.833 65.333)" fill="#106253"/>
  <rect id="Rectangle_403" data-name="Rectangle 403" width="8.167" height="8.167" transform="translate(32.667 73.5)" fill="#579087"/>
  <rect id="Rectangle_404" data-name="Rectangle 404" width="8.167" height="8.167" transform="translate(32.667 81.667)" fill="#0a443a"/>
  <path id="Path_3366" data-name="Path 3366" d="M136.732,265.3h-8.167v-8.167Z" transform="translate(-87.732 -175.464)" fill="#579087"/>
  <rect id="Rectangle_405" data-name="Rectangle 405" width="8.167" height="8.167" transform="translate(24.5 89.833)" fill="#106253"/>
  <path id="Path_3367" data-name="Path 3367" d="M102.852,291.011h8.167l-8.167-8.167Z" transform="translate(-70.185 -193.011)" fill="#579087"/>
  <rect id="Rectangle_406" data-name="Rectangle 406" width="8.167" height="8.167" transform="translate(40.833 89.833)" fill="#579087"/>
  <rect id="Rectangle_407" data-name="Rectangle 407" width="8.167" height="8.167" transform="translate(49 89.833)" fill="#106253"/>
  <path id="Path_3368" data-name="Path 3368" d="M111.019,0l-8.167,8.167Z" transform="translate(-70.185)" fill="#0f6054"/>
  <path id="Path_3369" data-name="Path 3369" d="M59.593,25.713V33.88H51.426Z" transform="translate(-35.093 -17.547)" fill="#0a443a"/>
</svg>
